c:\users\suhlr\documents\myrepositories\opencap-processing-grf\examples\GRF_tracking_data\OC_val\OpenSimData\Dynamics\walking1\GRF_walking1_no_grf_tracking.mot
version=1
nRows=4
nColumns=109
inDegrees=yes
endheader 
time	ground_force_SmoothSphereHalfSpaceForce_s1_r_vx	ground_force_SmoothSphereHalfSpaceForce_s1_r_vy	ground_force_SmoothSphereHalfSpaceForce_s1_r_vz	ground_force_SmoothSphereHalfSpaceForce_s1_r_px	ground_force_SmoothSphereHalfSpaceForce_s1_r_py	ground_force_SmoothSphereHalfSpaceForce_s1_r_pz	ground_torque_SmoothSphereHalfSpaceForce_s1_r_x	ground_torque_SmoothSphereHalfSpaceForce_s1_r_y	ground_torque_SmoothSphereHalfSpaceForce_s1_r_z	ground_force_SmoothSphereHalfSpaceForce_s2_r_vx	ground_force_SmoothSphereHalfSpaceForce_s2_r_vy	ground_force_SmoothSphereHalfSpaceForce_s2_r_vz	ground_force_SmoothSphereHalfSpaceForce_s2_r_px	ground_force_SmoothSphereHalfSpaceForce_s2_r_py	ground_force_SmoothSphereHalfSpaceForce_s2_r_pz	ground_torque_SmoothSphereHalfSpaceForce_s2_r_x	ground_torque_SmoothSphereHalfSpaceForce_s2_r_y	ground_torque_SmoothSphereHalfSpaceForce_s2_r_z	ground_force_SmoothSphereHalfSpaceForce_s3_r_vx	ground_force_SmoothSphereHalfSpaceForce_s3_r_vy	ground_force_SmoothSphereHalfSpaceForce_s3_r_vz	ground_force_SmoothSphereHalfSpaceForce_s3_r_px	ground_force_SmoothSphereHalfSpaceForce_s3_r_py	ground_force_SmoothSphereHalfSpaceForce_s3_r_pz	ground_torque_SmoothSphereHalfSpaceForce_s3_r_x	ground_torque_SmoothSphereHalfSpaceForce_s3_r_y	ground_torque_SmoothSphereHalfSpaceForce_s3_r_z	ground_force_SmoothSphereHalfSpaceForce_s4_r_vx	ground_force_SmoothSphereHalfSpaceForce_s4_r_vy	ground_force_SmoothSphereHalfSpaceForce_s4_r_vz	ground_force_SmoothSphereHalfSpaceForce_s4_r_px	ground_force_SmoothSphereHalfSpaceForce_s4_r_py	ground_force_SmoothSphereHalfSpaceForce_s4_r_pz	ground_torque_SmoothSphereHalfSpaceForce_s4_r_x	ground_torque_SmoothSphereHalfSpaceForce_s4_r_y	ground_torque_SmoothSphereHalfSpaceForce_s4_r_z	ground_force_SmoothSphereHalfSpaceForce_s5_r_vx	ground_force_SmoothSphereHalfSpaceForce_s5_r_vy	ground_force_SmoothSphereHalfSpaceForce_s5_r_vz	ground_force_SmoothSphereHalfSpaceForce_s5_r_px	ground_force_SmoothSphereHalfSpaceForce_s5_r_py	ground_force_SmoothSphereHalfSpaceForce_s5_r_pz	ground_torque_SmoothSphereHalfSpaceForce_s5_r_x	ground_torque_SmoothSphereHalfSpaceForce_s5_r_y	ground_torque_SmoothSphereHalfSpaceForce_s5_r_z	ground_force_SmoothSphereHalfSpaceForce_s6_r_vx	ground_force_SmoothSphereHalfSpaceForce_s6_r_vy	ground_force_SmoothSphereHalfSpaceForce_s6_r_vz	ground_force_SmoothSphereHalfSpaceForce_s6_r_px	ground_force_SmoothSphereHalfSpaceForce_s6_r_py	ground_force_SmoothSphereHalfSpaceForce_s6_r_pz	ground_torque_SmoothSphereHalfSpaceForce_s6_r_x	ground_torque_SmoothSphereHalfSpaceForce_s6_r_y	ground_torque_SmoothSphereHalfSpaceForce_s6_r_z	ground_force_SmoothSphereHalfSpaceForce_s1_l_vx	ground_force_SmoothSphereHalfSpaceForce_s1_l_vy	ground_force_SmoothSphereHalfSpaceForce_s1_l_vz	ground_force_SmoothSphereHalfSpaceForce_s1_l_px	ground_force_SmoothSphereHalfSpaceForce_s1_l_py	ground_force_SmoothSphereHalfSpaceForce_s1_l_pz	ground_torque_SmoothSphereHalfSpaceForce_s1_l_x	ground_torque_SmoothSphereHalfSpaceForce_s1_l_y	ground_torque_SmoothSphereHalfSpaceForce_s1_l_z	ground_force_SmoothSphereHalfSpaceForce_s2_l_vx	ground_force_SmoothSphereHalfSpaceForce_s2_l_vy	ground_force_SmoothSphereHalfSpaceForce_s2_l_vz	ground_force_SmoothSphereHalfSpaceForce_s2_l_px	ground_force_SmoothSphereHalfSpaceForce_s2_l_py	ground_force_SmoothSphereHalfSpaceForce_s2_l_pz	ground_torque_SmoothSphereHalfSpaceForce_s2_l_x	ground_torque_SmoothSphereHalfSpaceForce_s2_l_y	ground_torque_SmoothSphereHalfSpaceForce_s2_l_z	ground_force_SmoothSphereHalfSpaceForce_s3_l_vx	ground_force_SmoothSphereHalfSpaceForce_s3_l_vy	ground_force_SmoothSphereHalfSpaceForce_s3_l_vz	ground_force_SmoothSphereHalfSpaceForce_s3_l_px	ground_force_SmoothSphereHalfSpaceForce_s3_l_py	ground_force_SmoothSphereHalfSpaceForce_s3_l_pz	ground_torque_SmoothSphereHalfSpaceForce_s3_l_x	ground_torque_SmoothSphereHalfSpaceForce_s3_l_y	ground_torque_SmoothSphereHalfSpaceForce_s3_l_z	ground_force_SmoothSphereHalfSpaceForce_s4_l_vx	ground_force_SmoothSphereHalfSpaceForce_s4_l_vy	ground_force_SmoothSphereHalfSpaceForce_s4_l_vz	ground_force_SmoothSphereHalfSpaceForce_s4_l_px	ground_force_SmoothSphereHalfSpaceForce_s4_l_py	ground_force_SmoothSphereHalfSpaceForce_s4_l_pz	ground_torque_SmoothSphereHalfSpaceForce_s4_l_x	ground_torque_SmoothSphereHalfSpaceForce_s4_l_y	ground_torque_SmoothSphereHalfSpaceForce_s4_l_z	ground_force_SmoothSphereHalfSpaceForce_s5_l_vx	ground_force_SmoothSphereHalfSpaceForce_s5_l_vy	ground_force_SmoothSphereHalfSpaceForce_s5_l_vz	ground_force_SmoothSphereHalfSpaceForce_s5_l_px	ground_force_SmoothSphereHalfSpaceForce_s5_l_py	ground_force_SmoothSphereHalfSpaceForce_s5_l_pz	ground_torque_SmoothSphereHalfSpaceForce_s5_l_x	ground_torque_SmoothSphereHalfSpaceForce_s5_l_y	ground_torque_SmoothSphereHalfSpaceForce_s5_l_z	ground_force_SmoothSphereHalfSpaceForce_s6_l_vx	ground_force_SmoothSphereHalfSpaceForce_s6_l_vy	ground_force_SmoothSphereHalfSpaceForce_s6_l_vz	ground_force_SmoothSphereHalfSpaceForce_s6_l_px	ground_force_SmoothSphereHalfSpaceForce_s6_l_py	ground_force_SmoothSphereHalfSpaceForce_s6_l_pz	ground_torque_SmoothSphereHalfSpaceForce_s6_l_x	ground_torque_SmoothSphereHalfSpaceForce_s6_l_y	ground_torque_SmoothSphereHalfSpaceForce_s6_l_z	
          0.82488679	         -0.00000000	         -0.00000000	         -0.00000000	          0.63933435	          0.08879009	         -0.18379113	          0.00000000	          0.00000000	          0.00000000	         -0.00000000	         -0.00000000	         -0.00000000	          0.71743013	          0.03335988	         -0.21849476	          0.00000000	          0.00000000	          0.00000000	         -0.00000000	         -0.00000000	         -0.00000000	          0.71773613	          0.03853941	         -0.14212494	          0.00000000	          0.00000000	          0.00000000	         -0.00000000	         -0.00000000	         -0.00000000	          0.67813323	          0.06410647	         -0.16056252	          0.00000000	          0.00000000	          0.00000000	         -1.12278593	          0.37918559	         -0.08406839	          0.76165803	          0.00497646	         -0.21385239	          0.00000000	          0.00000000	          0.00000000	         -0.00227608	          0.00077520	         -0.00016949	          0.76448582	          0.01091810	         -0.13757406	          0.00000000	          0.00000000	          0.00000000	         -3.30741195	         35.10385864	          4.07964207	          0.84344100	         -0.00378816	         -0.26845521	          0.00000000	          0.00000000	          0.00000000	         -2.64706787	         41.62770883	          0.55421396	          0.97695188	         -0.00320367	         -0.22642186	          0.00000000	          0.00000000	          0.00000000	        -16.78667087	        157.88162214	          0.27353895	          0.97283591	         -0.00741455	         -0.30291949	          0.00000000	          0.00000000	          0.00000000	         -8.73721327	         85.93645825	          5.08574230	          0.90731676	         -0.00572645	         -0.28812513	          0.00000000	          0.00000000	          0.00000000	         -5.32931544	         31.39197617	          0.77317776	          1.04943408	         -0.00228024	         -0.22779986	          0.00000000	          0.00000000	          0.00000000	        -14.60982725	         70.72781128	          1.63874052	          1.04550049	         -0.00400452	         -0.30487273	          0.00000000	          0.00000000	          0.00000000	
          0.84503774	         -0.00000000	         -0.00000000	         -0.00000000	          0.70423768	          0.07834407	         -0.18219868	          0.00000000	          0.00000000	          0.00000000	         -0.00000000	          0.00000000	         -0.00000000	          0.79628446	          0.02812776	         -0.21435461	          0.00000000	          0.00000000	          0.00000000	         -0.00000000	         -0.00000000	         -0.00000000	          0.79525222	          0.03426845	         -0.13827665	          0.00000000	          0.00000000	          0.00000000	         -0.00000000	         -0.00000000	         -0.00000000	          0.74923076	          0.05674839	         -0.15786401	          0.00000000	          0.00000000	          0.00000000	         -7.53883874	          2.45355495	         -0.47157619	          0.84696364	          0.00275578	         -0.20843250	          0.00000000	          0.00000000	          0.00000000	         -0.01010965	          0.00333367	         -0.00063055	          0.84775795	          0.00955715	         -0.13239352	          0.00000000	          0.00000000	          0.00000000	         -1.66067553	         20.30797277	          1.72912650	          0.84432566	         -0.00237014	         -0.26933062	          0.00000000	          0.00000000	          0.00000000	         -2.12838679	         32.61967700	          1.15633629	          0.97773223	         -0.00264306	         -0.22695477	          0.00000000	          0.00000000	          0.00000000	        -11.64170346	        153.94555972	          3.40030300	          0.97365779	         -0.00738776	         -0.30332953	          0.00000000	          0.00000000	          0.00000000	         -5.67397846	         71.74447993	          3.83766587	          0.90817178	         -0.00501500	         -0.28876609	          0.00000000	          0.00000000	          0.00000000	         -4.39615318	         28.60569484	          1.89151030	          1.05030994	         -0.00212289	         -0.22824975	          0.00000000	          0.00000000	          0.00000000	        -11.76150426	         73.49215327	          4.61326072	          1.04646357	         -0.00416963	         -0.30529547	          0.00000000	          0.00000000	          0.00000000	
          0.86518868	         -0.00000000	         -0.00000000	         -0.00000000	          0.77247856	          0.06600214	         -0.18120009	          0.00000000	          0.00000000	          0.00000000	         -0.00000001	          0.00000000	         -0.00000000	          0.87830622	          0.02265000	         -0.21080075	          0.00000000	          0.00000000	          0.00000000	         -0.00000000	          0.00000000	         -0.00000000	          0.87503019	          0.02948396	         -0.13502338	          0.00000000	          0.00000000	          0.00000000	         -0.00000000	         -0.00000000	         -0.00000000	          0.82310266	          0.04816916	         -0.15576023	          0.00000000	          0.00000000	          0.00000000	        -18.77814777	          6.02041880	         -1.02417266	          0.93519458	          0.00103662	         -0.20358283	          0.00000000	          0.00000000	          0.00000000	         -0.03138029	          0.01024199	         -0.00171083	          0.93315180	          0.00838357	         -0.12777050	          0.00000000	          0.00000000	          0.00000000	         -0.46051474	         10.65368030	          0.50778643	          0.84504612	         -0.00111532	         -0.27000844	          0.00000000	          0.00000000	          0.00000000	         -1.19607641	         26.32291812	          1.63195497	          0.97840924	         -0.00213731	         -0.22754173	          0.00000000	          0.00000000	          0.00000000	         -2.99287328	        153.43996033	          7.37657859	          0.97422512	         -0.00733873	         -0.30379150	          0.00000000	          0.00000000	          0.00000000	         -1.90664052	         62.30357128	          2.95256609	          0.90881273	         -0.00437237	         -0.28933285	          0.00000000	          0.00000000	          0.00000000	         -3.25424475	         26.68390984	          3.23809341	          1.05105761	         -0.00197277	         -0.22888045	          0.00000000	          0.00000000	          0.00000000	         -7.00757286	         75.99414527	          8.85931986	          1.04714906	         -0.00429602	         -0.30589167	          0.00000000	          0.00000000	          0.00000000	
          0.88533962	         -0.00000000	         -0.00000000	         -0.00000000	          0.84397158	          0.05285314	         -0.18022345	          0.00000000	          0.00000000	          0.00000000	         -0.00000228	          0.00000074	         -0.00000011	          0.96199920	          0.01774633	         -0.20729468	          0.00000000	          0.00000000	          0.00000000	         -0.00000000	          0.00000000	         -0.00000000	          0.95577016	          0.02483774	         -0.13179765	          0.00000000	          0.00000000	          0.00000000	         -0.00000000	         -0.00000000	         -0.00000000	          0.89906940	          0.03923563	         -0.15368049	          0.00000000	          0.00000000	          0.00000000	        -17.11787939	          5.48955879	         -0.96222294	          1.02422937	          0.00047598	         -0.19878538	          0.00000000	          0.00000000	          0.00000000	         -0.03926158	          0.01284497	         -0.00220208	          1.01880316	          0.00791641	         -0.12317646	          0.00000000	          0.00000000	          0.00000000	         -0.12983037	          6.35240788	         -0.00204380	          0.84556032	         -0.00015731	         -0.27042444	          0.00000000	          0.00000000	          0.00000000	         -1.01654277	         23.47717214	          1.91412053	          0.97896160	         -0.00180239	         -0.22815628	          0.00000000	          0.00000000	          0.00000000	          3.03228825	        159.68804917	         10.86168617	          0.97451367	         -0.00736106	         -0.30429020	          0.00000000	          0.00000000	          0.00000000	          0.06987574	         58.20118853	          1.92215277	          0.90920626	         -0.00391160	         -0.28978580	          0.00000000	          0.00000000	          0.00000000	         -3.08445543	         26.80315228	          4.71332675	          1.05166407	         -0.00191096	         -0.22968984	          0.00000000	          0.00000000	          0.00000000	         -3.79315293	         79.83208114	         13.58409087	          1.04753113	         -0.00442670	         -0.30666514	          0.00000000	          0.00000000	          0.00000000	
